<svg width="146" height="120" viewBox="0 0 146 120" fill="none" xmlns="http://www.w3.org/2000/svg">
<path d="M70.6197 3.36958C70.6197 3.36958 101.98 -7.84042 128.53 11.9696C155.08 31.7796 144.21 64.0496 134.15 76.0496C124.09 88.0496 110.43 93.6596 110.43 93.6596C110.43 93.6596 87.9197 111.48 77.4797 116.05C67.0397 120.62 60.5197 119.97 56.0197 119.31C51.5197 118.66 31.6597 107.23 31.6597 107.23C31.6597 107.23 22.1497 100.29 18.2497 99.7396C14.3597 99.1896 12.0997 98.2396 7.26972 97.4196C2.43972 96.5996 -2.71028 89.7296 1.61972 74.4196C5.95972 59.1096 32.8497 22.6596 70.6097 3.34958L70.6197 3.36958Z" fill="#8291A6"/>
<path d="M75.5612 38.2533C86.4753 29.7784 92.8708 19.7502 89.8459 15.8548C86.8211 11.9595 75.5214 15.6719 64.6073 24.1469C53.6933 32.6219 47.2978 42.65 50.3227 46.5454C53.3475 50.4408 64.6472 46.7283 75.5612 38.2533Z" fill="#65717F"/>
<path d="M33.2936 85.5709C40.3683 85.5499 46.0937 82.1974 46.0814 78.0829C46.0692 73.9684 40.3241 70.65 33.2494 70.671C26.1747 70.692 20.4493 74.0444 20.4616 78.1589C20.4738 82.2735 26.2189 85.5919 33.2936 85.5709Z" fill="#65717F"/>
<path d="M86.455 97.3144C92.9928 92.6043 96.1887 85.8654 93.5932 82.2626C90.9976 78.6599 83.5936 79.5575 77.0557 84.2676C70.5178 88.9776 67.3219 95.7165 69.9174 99.3193C72.513 102.922 79.9171 102.024 86.455 97.3144Z" fill="#65717F"/>
</svg>