<svg width="90" height="64" viewBox="0 0 90 64" fill="none" xmlns="http://www.w3.org/2000/svg">
<path d="M45.0797 2.13961C45.0797 2.13961 64.3097 -4.39039 79.9397 5.34961C95.5697 15.0896 88.2897 32.1496 81.9297 38.6296C75.5697 45.1096 67.1897 48.3296 67.1897 48.3296C67.1897 48.3296 53.1697 58.1096 46.7497 60.7196C40.3297 63.3296 36.3997 63.1296 33.6897 62.8896C30.9797 62.6496 19.2097 57.1296 19.2097 57.1296C19.2097 57.1296 13.6097 53.7196 11.2597 53.5196C8.91969 53.3196 7.56969 52.8696 4.66969 52.5496C1.76969 52.2296 -1.20031 48.7596 1.75969 40.6896C4.71969 32.6196 21.7997 13.0296 45.0797 2.12961V2.13961Z" fill="#8291A6"/>
<path d="M76.0897 21.2596C73.8197 19.9296 67.9197 24.1496 62.8997 30.6796C57.8797 37.2096 55.6497 43.5796 57.9197 44.9096C60.1897 46.2396 66.0897 42.0196 71.1097 35.4896C76.1297 28.9596 78.3597 22.5896 76.0897 21.2596Z" fill="#65717F"/>
<path d="M29.6398 41.8704C28.1898 43.4504 24.2797 42.6004 20.9097 39.9604C17.5297 37.3204 15.9698 33.9004 17.4198 32.3204C18.8698 30.7404 22.7797 31.5904 26.1497 34.2304C29.5297 36.8704 31.0898 40.2904 29.6398 41.8704Z" fill="#65717F"/>
<path d="M43.9997 9.56958C41.6597 9.80958 39.6997 13.9096 39.6197 18.7296C39.5397 23.5496 41.3797 27.2696 43.7197 27.0296C46.0597 26.7896 48.0197 22.6896 48.0997 17.8696C48.1797 13.0496 46.3397 9.32958 43.9997 9.56958Z" fill="#65717F"/>
</svg>
