<svg width="102" height="68" viewBox="0 0 102 68" fill="none" xmlns="http://www.w3.org/2000/svg">
<path d="M74.8203 59.7795C74.8203 59.7795 95.5603 49.5595 100.31 29.1195C105.05 8.68955 85.4503 0.819548 75.1203 0.719548C64.7903 0.619548 55.4403 4.77955 55.4403 4.77955C55.4403 4.77955 36.2803 8.18955 29.0003 11.2595C21.7303 14.3295 18.7203 17.6495 16.7303 20.0295C14.7403 22.4095 9.71029 36.3295 9.71029 36.3295C9.71029 36.3295 7.94029 43.5895 6.22029 45.6395C4.49029 47.6895 3.77029 49.1295 1.69029 51.7295C-0.389713 54.3295 0.0102844 59.5096 8.89028 63.6296C17.7703 67.7496 47.3003 69.7695 74.8203 59.7895V59.7795Z" fill="#8291A6"/>
<path d="M84.3997 19.42C83.6397 22.32 75.4897 23.68 66.1997 22.46C56.8997 21.24 49.9797 17.91 50.7397 15.01C51.4997 12.11 59.6497 10.75 68.9397 11.97C78.2397 13.19 85.1597 16.52 84.3997 19.42Z" fill="#65717F"/>
<path d="M30.3898 40.2298C27.9498 40.1198 25.4897 43.9598 24.8997 48.7998C24.2997 53.6398 25.7998 57.6598 28.2398 57.7698C30.6798 57.8798 33.1398 54.0398 33.7298 49.1998C34.3298 44.3598 32.8298 40.3398 30.3898 40.2298Z" fill="#65717F"/>
<path d="M67.9698 54.6703C65.8898 56.3603 61.0098 54.6403 57.0698 50.8203C53.1298 47.0003 51.6098 42.5303 53.6898 40.8303C55.7698 39.1403 60.6498 40.8603 64.5898 44.6803C68.5298 48.5003 70.0498 52.9703 67.9698 54.6703Z" fill="#65717F"/>
</svg>
