<svg xmlns="http://www.w3.org/2000/svg" xmlns:xlink="http://www.w3.org/1999/xlink" viewBox="0 0 245.86 213.99"><defs><style>.cls-1{fill:none;}.cls-2{clip-path:url(#clip-path);}.cls-3{fill:#78ccff;}.cls-4{fill:#78d152;stroke:#3a7a1c;stroke-miterlimit:10;stroke-width:3.6px;}.cls-5{fill:#19567c;}</style><clipPath id="clip-path" transform="translate(25.8 17.7)"><circle class="cls-1" cx="98.15" cy="98.15" r="98.15"/></clipPath></defs><g id="레이어_2" data-name="레이어 2"><g id="레이어_1-2" data-name="레이어 1"><g class="cls-2"><circle class="cls-3" cx="123.95" cy="115.85" r="98.15"/><path class="cls-4" d="M4.05,70.18c.74-2.61,10.21-.76,17.62,1.36S39,60.6,43.21,53.89s11.65-7.06,19.41-8.12,8.48-4.59,7.26-9.53S73.21,29.53,77.45,26s1.06-10.59-3.88-14.12S60.33,7.56,60.33,7.56L-4.22,5.41Z" transform="translate(25.8 17.7)"/><path class="cls-4" d="M126,4s-18.84,17-17.78,26.93S120.52,43,120.52,50s-7.41,17.3-18,19.77S82.75,82.49,82.39,89.55s18.36,11.3,23.3,16.59,20,9.53,20.26,31.42,6.93,24.36,21,12.36,16.95-26.13,15.89-33.54,16-27.45,32.52-31.38l22.38-46.19L144.48-15.31Z" transform="translate(25.8 17.7)"/><path class="cls-4" d="M38,175.65s2.78-21.14,9.14-31.38-6-27.89-20.12-25.07S13.55,95.55,13.55,95.55,12.22,79.66,0,93.43l-23.45,63.63Z" transform="translate(25.8 17.7)"/><path class="cls-5" d="M98.15,3.6A94.55,94.55,0,1,1,3.6,98.15,94.65,94.65,0,0,1,98.15,3.6m0-3.6a98.15,98.15,0,1,0,98.14,98.15A98.15,98.15,0,0,0,98.15,0Z" transform="translate(25.8 17.7)"/></g></g></g></svg>