<svg xmlns="http://www.w3.org/2000/svg" viewBox="0 0 130.66 130.66"><defs><style>.cls-1,.cls-2{fill:none;stroke-miterlimit:10;stroke-width:2.09px;}.cls-1{stroke:#78d152;}.cls-2{stroke:#55b6ff;}</style></defs><g id="레이어_2" data-name="레이어 2"><g id="레이어_1-2" data-name="레이어 1"><path class="cls-1" d="M36,5.42s4.8.45,7.66,2.5,4.7,6.13,2.25,8.17S40.77,19.15,41.47,22s.3,4.9-4.19,5.52-8.79.81-11.24,4.7S17.87,43.66,13.58,42.44s-9.77-2.3-10.19-.79"/><path class="cls-1" d="M73.92,3.36S63,13.23,63.63,19s7.15,6.94,7.15,11S66.49,40,60.36,41.42,48.92,48.77,48.72,52.86s10.62,6.53,13.48,9.6S73.79,68,73.92,80.64s4,14.09,12.18,7.15,9.8-15.12,9.19-19.41,9.24-15.88,18.82-18.15"/><path class="cls-1" d="M23,102.67s1.61-12.23,5.29-18.15S24.82,68.38,16.65,70,8.88,56.33,8.88,56.33,8.12,47.14,1,55.1"/><circle class="cls-2" cx="57.83" cy="57.83" r="56.79"/></g></g></svg>