<svg xmlns="http://www.w3.org/2000/svg" viewBox="0 0 52.44 52.44"><defs><style>.cls-1{fill:none;stroke:#dcceb4;stroke-miterlimit:10;stroke-width:1.49px;}</style></defs><g id="레이어_2" data-name="레이어 2"><g id="레이어_1-2" data-name="레이어 1"><path class="cls-1" d="M39.66,27.36a9.76,9.76,0,0,1,9.76-9.76c.26,0,.51,0,.77,0A25.53,25.53,0,0,0,35.67,2.58,12.54,12.54,0,0,1,23.56,11.9a12.54,12.54,0,0,1-11.25-7,25.45,25.45,0,0,0,9.42,46.39,7.1,7.1,0,0,1-.2-1.61,7.23,7.23,0,0,1,14.45,0s0,.06,0,.09A25.54,25.54,0,0,0,49.23,37.11,9.75,9.75,0,0,1,39.66,27.36Zm-27.13,5.2a5.2,5.2,0,1,1,5.2-5.2A5.19,5.19,0,0,1,12.53,32.56Z"/><path class="cls-1" d="M23.56,11.9A12.54,12.54,0,0,0,35.67,2.58,25.31,25.31,0,0,0,12.31,4.89,12.54,12.54,0,0,0,23.56,11.9Z"/><path class="cls-1" d="M50.19,17.64c-.26,0-.51,0-.77,0a9.76,9.76,0,0,0-.19,19.51,25.19,25.19,0,0,0,1-19.47Z"/><path class="cls-1" d="M12.53,22.17a5.2,5.2,0,1,0,5.2,5.19A5.19,5.19,0,0,0,12.53,22.17Z"/><path class="cls-1" d="M28.76,42.45a7.23,7.23,0,0,0-7.23,7.22,7.1,7.1,0,0,0,.2,1.61A25.07,25.07,0,0,0,36,49.76s0-.06,0-.09A7.22,7.22,0,0,0,28.76,42.45Z"/></g></g></svg>