<svg xmlns="http://www.w3.org/2000/svg" viewBox="0 0 52.44 52.44"><defs><style>.cls-1{fill:#dcceb4;stroke:#674440;stroke-miterlimit:10;stroke-width:1.48px;}</style></defs><g id="레이어_2" data-name="레이어 2"><g id="레이어_1-2" data-name="레이어 1"><path class="cls-1" d="M39.66,27.36a9.76,9.76,0,0,1,9.76-9.76c.26,0,.51,0,.76,0A25.53,25.53,0,0,0,35.67,2.57,12.53,12.53,0,0,1,23.56,11.9a12.54,12.54,0,0,1-11.25-7,25.45,25.45,0,0,0,9.41,46.39,7.79,7.79,0,0,1-.19-1.61,7.23,7.23,0,1,1,14.45,0s0,.06,0,.09A25.58,25.58,0,0,0,49.23,37.11,9.75,9.75,0,0,1,39.66,27.36Zm-27.13,5.2a5.2,5.2,0,1,1,5.2-5.2A5.2,5.2,0,0,1,12.53,32.56Z"/><path class="cls-1" d="M23.56,11.9A12.53,12.53,0,0,0,35.67,2.57,25.36,25.36,0,0,0,12.31,4.89,12.54,12.54,0,0,0,23.56,11.9Z"/><path class="cls-1" d="M50.18,17.64c-.25,0-.5,0-.76,0a9.76,9.76,0,0,0-.19,19.51A25.43,25.43,0,0,0,51.7,26.22,25.13,25.13,0,0,0,50.18,17.64Z"/><path class="cls-1" d="M12.53,22.16a5.2,5.2,0,1,0,5.2,5.2A5.2,5.2,0,0,0,12.53,22.16Z"/><path class="cls-1" d="M28.75,42.44a7.23,7.23,0,0,0-7.22,7.23,7.79,7.79,0,0,0,.19,1.61A25.1,25.1,0,0,0,36,49.76s0-.06,0-.09A7.23,7.23,0,0,0,28.75,42.44Z"/></g></g></svg>