<svg width="102" height="102" viewBox="0 0 102 102" fill="none" xmlns="http://www.w3.org/2000/svg">
<g clip-path="url(#clip0_305_309)">
<path d="M50.51 99.52C77.5775 99.52 99.52 77.5775 99.52 50.51C99.52 23.4425 77.5775 1.5 50.51 1.5C23.4425 1.5 1.5 23.4425 1.5 50.51C1.5 77.5775 23.4425 99.52 50.51 99.52Z" stroke="#DCC8A4" stroke-width="3" stroke-miterlimit="10"/>
<path d="M68.7701 61.4002C68.7701 61.4002 61.1601 45.9102 53.3801 61.4002C45.6001 76.8902 67.8901 79.0102 69.8301 87.7102C69.8301 87.7102 90.5301 77.3102 88.0501 62.4602C85.5701 47.6102 71.4201 53.9702 68.7701 61.4002Z" stroke="#DCC8A4" stroke-width="3" stroke-linecap="round" stroke-linejoin="round"/>
<path d="M30.5804 36.2898C34.7999 36.2898 38.2204 32.8692 38.2204 28.6498C38.2204 24.4303 34.7999 21.0098 30.5804 21.0098C26.361 21.0098 22.9404 24.4303 22.9404 28.6498C22.9404 32.8692 26.361 36.2898 30.5804 36.2898Z" stroke="#DCC8A4" stroke-width="3" stroke-linecap="round" stroke-linejoin="round"/>
<path d="M28.2302 76.0698C33.7476 76.0698 38.2202 71.5972 38.2202 66.0798C38.2202 60.5625 33.7476 56.0898 28.2302 56.0898C22.7129 56.0898 18.2402 60.5625 18.2402 66.0798C18.2402 71.5972 22.7129 76.0698 28.2302 76.0698Z" stroke="#DCC8A4" stroke-width="3" stroke-linecap="round" stroke-linejoin="round"/>
<path d="M71.5898 28.5995C74.9256 28.5995 77.6298 25.8953 77.6298 22.5595C77.6298 19.2237 74.9256 16.5195 71.5898 16.5195C68.254 16.5195 65.5498 19.2237 65.5498 22.5595C65.5498 25.8953 68.254 28.5995 71.5898 28.5995Z" stroke="#DCC8A4" stroke-width="3" stroke-linecap="round" stroke-linejoin="round"/>
</g>
<defs>
<clipPath id="clip0_305_309">
<rect width="101.02" height="101.02" fill="white"/>
</clipPath>
</defs>
</svg>
