<svg width="101" height="101" viewBox="0 0 101 101" fill="none" xmlns="http://www.w3.org/2000/svg">
<g clip-path="url(#clip0_305_357)">
<path d="M50.1399 99.1499C77.2074 99.1499 99.1499 77.2074 99.1499 50.1399C99.1499 23.0724 77.2074 1.12988 50.1399 1.12988C23.0724 1.12988 1.12988 23.0724 1.12988 50.1399C1.12988 77.2074 23.0724 99.1499 50.1399 99.1499Z" fill="#DCC8A4" stroke="#B78058" stroke-width="2.25" stroke-miterlimit="10"/>
<path d="M68.3902 61.0301C68.3902 61.0301 60.7802 45.5401 53.0002 61.0301C45.2202 76.5201 67.5102 78.6401 69.4502 87.3401C69.4502 87.3401 90.1502 76.9401 87.6702 62.0901C85.1902 47.2401 71.0402 53.6001 68.3902 61.0301Z" fill="#B78058"/>
<path d="M30.2103 35.9196C34.4298 35.9196 37.8503 32.4991 37.8503 28.2796C37.8503 24.0602 34.4298 20.6396 30.2103 20.6396C25.9909 20.6396 22.5703 24.0602 22.5703 28.2796C22.5703 32.4991 25.9909 35.9196 30.2103 35.9196Z" fill="#B78058"/>
<path d="M27.8601 75.69C33.3774 75.69 37.8501 71.2173 37.8501 65.7C37.8501 60.1826 33.3774 55.71 27.8601 55.71C22.3428 55.71 17.8701 60.1826 17.8701 65.7C17.8701 71.2173 22.3428 75.69 27.8601 75.69Z" fill="#B78058"/>
<path d="M71.2197 28.2196C74.5555 28.2196 77.2597 25.5154 77.2597 22.1796C77.2597 18.8438 74.5555 16.1396 71.2197 16.1396C67.8839 16.1396 65.1797 18.8438 65.1797 22.1796C65.1797 25.5154 67.8839 28.2196 71.2197 28.2196Z" fill="#B78058"/>
</g>
<defs>
<clipPath id="clip0_305_357">
<rect width="100.28" height="100.28" fill="white"/>
</clipPath>
</defs>
</svg>
