<svg xmlns="http://www.w3.org/2000/svg" viewBox="0 0 374.11 374.11"><defs><style>.cls-1{fill:none;stroke:#f8da91;stroke-miterlimit:10;stroke-width:4.11px;}</style></defs><g id="레이어_2" data-name="레이어 2"><g id="레이어_1-2" data-name="레이어 1"><path class="cls-1" d="M149.63,290a110.34,110.34,0,1,1,56.88,6.13"/><path class="cls-1" d="M198.44,277.35c13.54-11.84,27.19-24.6,40.75-38.16,98-98,154.11-200.79,125.31-229.59S232.92,36.91,134.92,134.92-19.19,335.71,9.6,364.5c20.34,20.35,77.61-1.68,144-50.91"/><path class="cls-1" d="M195.5,274.67c13.8-11.38,27.72-24,41.44-37.73C317.52,156.37,360.5,68.71,333,41.16s-115.21,15.43-195.79,96S13.6,305.4,41.16,333c17.66,17.66,60,6.34,109.39-25.3"/><path class="cls-1" d="M192.48,272.58a360.73,360.73,0,0,0,43.14-37C298.54,172.7,327.8,100,301,73.13s-99.57,2.44-162.49,65.36S46.31,274.16,73.13,301c14.58,14.59,42.75,12.59,75.53-2.39"/><circle class="cls-1" cx="177.59" cy="297.38" r="28.92"/></g></g></svg>