<svg xmlns="http://www.w3.org/2000/svg" viewBox="0 0 373.69 373.69"><defs><style>.cls-1{fill:#f8da91;stroke-width:4.09px;}.cls-1,.cls-2{stroke:#77411d;}.cls-1,.cls-2,.cls-3{stroke-miterlimit:10;}.cls-2{fill:none;stroke-width:4.1px;}.cls-3{fill:#67b26b;stroke:#1b5e2b;stroke-width:2.27px;}</style></defs><g id="레이어_2" data-name="레이어 2"><g id="레이어_1-2" data-name="레이어 1"><circle class="cls-1" cx="189.29" cy="186.84" r="110.2"/><path class="cls-2" d="M79.45,195.82C17.21,272.21-13.18,341.32,9.59,364.1,38.35,392.86,141,336.82,238.92,238.92S392.86,38.35,364.1,9.59c-22.43-22.43-89.81,6.71-164.81,67.05"/><path class="cls-2" d="M80.26,203c-41.9,57.74-59.17,109.55-39.15,129.58,27.52,27.52,115.08-15.42,195.57-95.9s123.42-168,95.9-195.57c-19.65-19.65-69.91-3.38-126.35,36.83"/><path class="cls-2" d="M82,212.08C61.28,250.32,56.56,284.16,73,300.64c26.8,26.79,99.46-2.44,162.31-65.29S327.43,99.84,300.64,73C284.59,57,252,61.05,215,80.43"/><circle class="cls-3" cx="177.39" cy="297.05" r="28.89"/><path class="cls-1" d="M85.75,224.67A110.27,110.27,0,0,1,229.28,84.12"/></g></g></svg>