<svg width="499" height="1623" viewBox="0 0 499 1623" fill="none" xmlns="http://www.w3.org/2000/svg">
<g clip-path="url(#clip0_346_1377)">
<path d="M74.7498 1148.33C74.7498 1152.16 63.9198 1150.08 66.3198 1146.92C67.6798 1145.13 74.7498 1146.3 74.7498 1148.33Z" fill="#F2F5EE"/>
<path d="M394.23 1244.39C395 1247.84 389.34 1249.09 388.61 1245.8C387.84 1242.35 393.5 1241.1 394.23 1244.39Z" fill="#C0CFAB"/>
<path d="M259.7 260.4C261.3 262.99 253.62 263.34 252.67 261.81C251.07 259.22 258.75 258.87 259.7 260.4Z" fill="#93A1A6"/>
<path d="M485.96 152.18C485.32 155.41 479.98 155.1 481.74 149.37C482.78 148.2 486.01 151.93 485.96 152.18Z" fill="#6A8D95"/>
<path d="M202.08 1344.56C202.22 1346.49 196.92 1347.52 196.46 1344.56C196.09 1342.23 201.98 1343.23 202.08 1344.56Z" fill="#C7E3D0"/>
<path d="M313.44 2.39013C312.56 3.26013 310.69 8.24013 309.22 5.20013C308.31 3.31013 312.64 0.190129 313.44 2.39013Z" fill="#B7C1BA"/>
<path d="M3.90929 322.23C3.50929 325.55 -2.39071 323.11 1.09929 320.82C2.50929 319.9 3.92929 322.07 3.90929 322.23Z" fill="#B7C1BA"/>
<path d="M28.6693 0.859711C29.8693 2.59971 23.2893 2.70971 24.4493 0.859711C25.1193 -0.210289 27.8293 -0.350289 28.6693 0.859711Z" fill="#849290"/>
<path d="M141.52 1466.65C143.15 1473.32 135.84 1468.14 135.9 1466.65C135.97 1464.66 140.79 1463.65 141.52 1466.65Z" fill="#C7E3D0"/>
<path d="M379.46 1510.15C379.2 1512.11 375.12 1509.65 375.24 1508.74C375.5 1506.78 379.58 1509.24 379.46 1510.15Z" fill="#9FB8BB"/>
<path d="M498.61 714.95C499.81 716.69 493.23 716.8 494.39 714.95C495.06 713.88 497.77 713.74 498.61 714.95Z" fill="#D3CFAE"/>
<path d="M164.76 1620.66C164.88 1621.57 160.8 1624.02 160.54 1622.07C160.42 1621.16 164.5 1618.71 164.76 1620.66Z" fill="#CECDF7"/>
<path d="M175.979 60.9094C176.649 65.9294 169.979 64.2494 170.359 60.9094C170.639 58.4594 175.639 58.3594 175.979 60.9094Z" fill="#F0D9B3"/>
<path d="M276.46 117.24C273.88 118.98 270.65 117.79 273.65 115.83C275.18 114.83 275.35 116.37 276.46 117.24Z" fill="#B7C1BA"/>
<path d="M213.49 639.13C211.26 635.9 218.19 631.89 219.11 636.32C219.69 639.12 214.96 641.25 213.49 639.13Z" fill="#B7C1BA"/>
<path d="M371.02 540.7C371.41 536.74 378.87 539.57 376.64 543.51C375.29 545.89 370.99 541.01 371.02 540.7Z" fill="#92959E"/>
<path d="M153.189 519.62C151.589 517.03 159.269 516.68 160.219 518.21C161.819 520.8 154.139 521.15 153.189 519.62Z" fill="#93A1A6"/>
<path d="M435.67 581.46C435.47 577.3 441.29 579.97 441.29 581.46C441.29 583.79 435.79 584.01 435.67 581.46Z" fill="#B7C1BA"/>
<path d="M260.19 402.929C259.84 401.279 259.47 397.519 262.3 398.009C260.19 403.209 266.6 403.469 262.3 406.439C262.16 405.379 260.26 403.239 260.19 402.929Z" fill="#677B98"/>
<path d="M-0.000402471 679.83C0.639598 676.6 5.9796 676.91 4.2196 682.64C3.1796 683.81 -0.0504025 680.08 -0.000402471 679.83Z" fill="#6A8D95"/>
<path d="M309.99 771.109C309.32 766.089 315.99 767.769 315.61 771.109C315.33 773.559 310.33 773.659 309.99 771.109Z" fill="#F0D9B3"/>
<path d="M327.63 971.509C327.55 972.419 319.27 978.849 319.2 972.919C319.12 966.459 327.92 968.359 327.63 971.509Z" fill="#CCCABD"/>
<path d="M111.129 788.43C113.179 793.08 106.989 792.24 106.909 789.84C106.889 789.13 110.239 786.42 111.129 788.43Z" fill="#B7C1BA"/>
<path d="M428.649 366.429L429.349 364.319L431.459 365.029L430.749 365.729L428.649 366.429Z" fill="#9FB8BB"/>
</g>
<defs>
<clipPath id="clip0_346_1377">
<rect width="498.75" height="1622.8" fill="white"/>
</clipPath>
</defs>
</svg>
